<svg width="16" height="16" viewBox="0 0 16 16" fill="none" xmlns="http://www.w3.org/2000/svg">
<path d="M13.5 7V4" stroke="black" stroke-linecap="round" stroke-linejoin="round"/>
<path d="M15 5.5H12" stroke="black" stroke-linecap="round" stroke-linejoin="round"/>
<path d="M10.5 1.5V3.5" stroke="black" stroke-linecap="round" stroke-linejoin="round"/>
<path d="M11.5 2.5H9.5" stroke="black" stroke-linecap="round" stroke-linejoin="round"/>
<path d="M13.5436 9.53731C12.5619 9.81258 11.5247 9.8216 10.5384 9.56344C9.55205 9.30528 8.65223 8.78924 7.93131 8.06832C7.21039 7.3474 6.69436 6.44759 6.43619 5.46128C6.17803 4.47497 6.18706 3.43772 6.46233 2.45605C5.4945 2.72544 4.61413 3.24369 3.90892 3.9592C3.20371 4.67471 2.69827 5.5625 2.44295 6.53413C2.18763 7.50577 2.19133 8.52735 2.45369 9.49711C2.71605 10.4669 3.22791 11.351 3.93829 12.0613C4.64866 12.7717 5.53276 13.2836 6.50253 13.5459C7.47229 13.8083 8.49387 13.812 9.4655 13.5567C10.4371 13.3014 11.3249 12.7959 12.0404 12.0907C12.7559 11.3855 13.2742 10.5051 13.5436 9.53731Z" stroke="black" stroke-linecap="round" stroke-linejoin="round"/>
</svg>
